<svg viewBox="1 1 176 176" xmlns="http://www.w3.org/2000/svg" xmlns:xlink="http://www.w3.org/1999/xlink"><defs><linearGradient id="c" gradientUnits="userSpaceOnUse" x1="29.34" x2="81.84" y1="75.02" y2="44.35"><stop offset="0" stop-color="#a52714" stop-opacity=".6"></stop><stop offset=".66" stop-color="#a52714" stop-opacity="0"></stop></linearGradient><linearGradient id="e" gradientUnits="userSpaceOnUse" x1="110.9" x2="52.54" y1="164.5" y2="130.3"><stop offset="0" stop-color="#055524" stop-opacity=".4"></stop><stop offset=".33" stop-color="#055524" stop-opacity="0"></stop></linearGradient><linearGradient id="g" gradientUnits="userSpaceOnUse" x1="121.9" x2="136.6" y1="49.8" y2="114.1"><stop offset="0" stop-color="#ea6100" stop-opacity=".3"></stop><stop offset=".66" stop-color="#ea6100" stop-opacity="0"></stop></linearGradient><linearGradient id="a"><stop offset="0" stop-color="#3e2723" stop-opacity=".2"></stop><stop offset="1" stop-color="#3e2723" stop-opacity="0"></stop></linearGradient><clipPath id="b"><circle cx="96" cy="96" r="88"></circle></clipPath><clipPath id="f"><path d="M8 184h83.77l38.88-38.88V116h-69.3L8 24.48z"></path></clipPath><clipPath id="h"><path d="m96 56 34.65 60-38.88 68H184V56z"></path></clipPath><clipPath id="j"><path d="M21.97 8v40.34L61.36 116 96 56h88V8z"></path></clipPath><radialGradient id="i" cx="92.2" cy="55.95" gradientUnits="userSpaceOnUse" r="84.08" xlink:href="#a"></radialGradient><radialGradient id="k" cx="21.9" cy="48.52" gradientUnits="userSpaceOnUse" r="78.04" xlink:href="#a"></radialGradient><radialGradient id="l" cx="95.8" cy="96.14" gradientUnits="userSpaceOnUse" r="87.87"><stop offset="0" stop-color="#263238" stop-opacity=".2"></stop><stop offset="1" stop-color="#263238" stop-opacity="0"></stop></radialGradient><path id="d" d="M8 184h83.77l38.88-38.88V116h-69.3L8 24.48z"></path></defs><g clip-path="url(#b)" transform="translate(-7 -7)"><path d="M21.97 8v108h39.4L96 56h88V8z" fill="#db4437"></path><path d="M21.97 8v108h39.4L96 56h88V8z" fill="url(#c)"></path><path d="M62.3 115.6 22.48 47.3l-.58 1 39.54 67.8z" fill="#3e2723" fill-opacity=".15"></path><use fill="#0f9d58" xlink:href="#d"></use><path d="M8 184h83.77l38.88-38.88V116h-69.3L8 24.48z" fill="url(#e)"></path><path d="m129.8 117.3-.83-.48-38.4 67.15h1.15l38.1-66.64z" fill="#263238" fill-opacity=".15"></path><g clip-path="url(#f)"><path d="m96 56 34.65 60-38.88 68H184V56z" fill="#ffcd40"></path><path d="m96 56 34.65 60-38.88 68H184V56z" fill="url(#g)"></path></g><path d="m96 56 34.65 60-38.88 68H184V56z" fill="#ffcd40"></path><path d="m96 56 34.65 60-38.88 68H184V56z" fill="url(#g)"></path><g clip-path="url(#h)"><path d="M21.97 8v108h39.4L96 56h88V8z" fill="#db4437"></path><path d="M21.97 8v108h39.4L96 56h88V8z" fill="url(#c)"></path></g></g><path clip-path="url(#b)" d="M96 56v20.95L174.4 56z" fill="url(#i)" transform="translate(-7 -7)"></path><g clip-path="url(#b)" transform="translate(-7 -7)"><g clip-path="url(#j)"><use fill="#0f9d58" xlink:href="#d"></use><path d="M8 184h83.77l38.88-38.88V116h-69.3L8 24.48z" fill="url(#e)"></path></g></g><path clip-path="url(#b)" d="m21.97 48.45 57.25 57.24L61.36 116z" fill="url(#k)" transform="translate(-7 -7)"></path><g><path clip-path="url(#b)" d="m91.83 183.9 20.96-78.2 17.86 10.3z" fill="url(#l)" transform="translate(-7 -7)"></path><g clip-path="url(#b)" transform="translate(-7 -7)"><circle cx="96" cy="96" fill="#f1f1f1" r="40"></circle><circle cx="96" cy="96" fill="#4285f4" r="32"></circle><path d="M96 55c-22.1 0-40 17.9-40 40v1c0-22.1 17.9-40 40-40h88v-1z" fill="#3e2723" fill-opacity=".2"></path><path d="M130.6 116a39.95 39.95 0 0 1-69.2 0h-.04L8 24.48v1L61.4 117a39.93 39.93 0 0 0 69.2 0h.05v-1h-.06z" fill="#fff" fill-opacity=".1"></path><path d="M97 56c-.17 0-.33.02-.5.03a39.98 39.98 0 0 1 0 79.94c.17 0 .33.03.5.03 22.1 0 40-17.9 40-40s-17.9-40-40-40z" fill="#3e2723" opacity=".1"></path><path d="M131 117.3a39.72 39.72 0 0 0 5.37-19.96 39.87 39.87 0 0 0-1.87-12.09 39.72 39.72 0 0 1-3.87 30.69l.02.04-38.88 68h1.16z" fill="#fff" fill-opacity=".2"></path><path d="M96 9a88.01 88.01 0 0 1 88 87.5l.01-.5A88.01 88.01 0 0 0 8 96l.01.5A88 88 0 0 1 96 9z" fill="#fff" fill-opacity=".2"></path><path d="M96 183a88.01 88.01 0 0 0 88-87.5l.01.5A88.01 88.01 0 0 1 8 96l.01-.5a88 88 0 0 0 88 87.5z" fill="#3e2723" fill-opacity=".15"></path></g></g></svg>